<svg xmlns="http://www.w3.org/2000/svg" width="173" height="38" viewBox="0 0 173 38" fill="none">
<g id="Group 353">
<g id="Group 267">
<rect id="Rectangle 153" x="12.2793" y="6.79541" width="16.9095" height="4.12796" rx="2.06398" fill="#006185"/>
<rect id="Rectangle 164" x="2.73926" y="6.79541" width="8.80486" height="4.12796" rx="2.06398" fill="#006185"/>
<rect id="Rectangle 154" x="8.58594" y="13.5647" width="17.5747" height="4.12796" rx="2.06398" fill="#006185"/>
<rect id="Rectangle 163" y="13.5647" width="8.20095" height="4.12796" rx="2.06398" fill="#006185"/>
<rect id="Rectangle 155" x="0.375977" y="20.3339" width="23.8764" height="4.12796" rx="2.06398" fill="#006185"/>
<rect id="Rectangle 156" x="8.58594" y="33.8724" width="30.9571" height="4.12796" rx="2.06398" fill="#006185"/>
<rect id="Rectangle 161" x="8.58618" y="0.0261841" width="30.9571" height="4.12796" rx="2.06398" fill="#006185"/>
<rect id="Rectangle 157" x="12.2793" y="27.1031" width="19.8328" height="4.12796" rx="2.06398" fill="#006185"/>
<rect id="Rectangle 162" x="3.67578" y="27.1031" width="7.86836" height="4.12796" rx="2.06398" fill="#006185"/>
<ellipse id="Ellipse 68" cx="37.5302" cy="18.9951" rx="4.665" ry="4.66145" fill="#006185"/>
</g>
<path id="Vector" d="M112.987 0.00948093C112.962 0.00860596 112.948 0.00860596 112.925 0.00860596H100.407C97.5066 0.00860596 95.1558 2.36752 95.1558 5.26718V32.7588C95.1558 35.6584 97.5066 37.9998 100.407 37.9998H112.936C112.952 37.9998 112.955 37.9998 112.969 37.9998C113.46 37.992 131.425 37.5903 131.425 19.0672C131.425 0.714704 113.789 0.0304802 112.987 0.00948093ZM114.042 28.502C114.035 28.502 114.035 28.502 114.028 28.502H106.368C105.4 28.502 104.661 27.7233 104.661 26.7565V11.2607C104.661 10.2939 105.444 9.50641 106.411 9.50641H114.07C114.077 9.50641 114.083 9.50641 114.092 9.50641C114.408 9.51604 121.921 9.84327 121.921 19.0357C121.92 28.3069 114.234 28.4985 114.042 28.502Z" fill="#006185"/>
<path id="Ellipse 78" d="M47.9006 8.92167C49.7565 7.06711 49.775 3.99617 47.5175 2.65811C45.675 1.566 43.6511 0.787067 41.5276 0.365003C37.84 -0.367946 34.0177 0.0082311 30.5441 1.44596C27.0704 2.8837 24.1015 5.31841 22.0126 8.44223C19.9238 11.566 18.8088 15.2386 18.8088 18.9956C18.8088 22.7526 19.9238 26.4252 22.0126 29.549C24.1015 32.6728 27.0704 35.1075 30.5441 36.5453C34.0177 37.983 37.84 38.3592 41.5276 37.6262C43.6511 37.2042 45.675 36.4252 47.5175 35.3331C49.775 33.9951 49.7565 30.9241 47.9006 29.0696C46.0446 27.215 43.0135 27.3709 40.4949 28.1093C40.2249 28.1884 39.9508 28.2558 39.6733 28.3109C37.8295 28.6774 35.9183 28.4893 34.1815 27.7705C32.4447 27.0516 30.9602 25.8342 29.9158 24.2723C28.8714 22.7104 28.3139 20.8741 28.3139 18.9956C28.3139 17.1171 28.8714 15.2808 29.9158 13.7189C30.9602 12.157 32.4447 10.9397 34.1815 10.2208C35.9183 9.50193 37.8295 9.31384 39.6733 9.68031C39.9508 9.73547 40.2249 9.80283 40.4949 9.88198C43.0135 10.6204 46.0446 10.7762 47.9006 8.92167Z" fill="#006185"/>
<path id="Ellipse 79" d="M91.217 19.0042C91.217 29.4952 82.7059 37.9998 72.2069 37.9998C61.7079 37.9998 53.1968 29.4952 53.1968 19.0042C53.1968 8.51323 61.7079 0.00860596 72.2069 0.00860596C82.7059 0.00860596 91.217 8.51323 91.217 19.0042ZM62.7018 19.0042C62.7018 24.2497 66.9574 28.502 72.2069 28.502C77.4564 28.502 81.7119 24.2497 81.7119 19.0042C81.7119 13.7587 77.4564 9.50641 72.2069 9.50641C66.9574 9.50641 62.7018 13.7587 62.7018 19.0042Z" fill="#006185"/>
<path id="Vector_2" d="M169.047 19.3083C171.489 19.1528 173.465 17.133 172.904 14.713C172.186 11.614 170.694 8.71939 168.532 6.31424C165.302 2.72138 160.822 0.491019 156.004 0.0785079C151.186 -0.334877 146.392 1.10105 142.596 4.0935C138.801 7.08595 136.29 11.4103 135.574 16.1857C134.858 20.961 135.991 25.8299 138.743 29.8003C141.495 33.7707 145.658 36.5455 150.386 37.5593C155.114 38.5731 160.052 37.7499 164.193 35.2573C166.965 33.5889 169.241 31.2581 170.836 28.5051C172.152 26.2354 170.632 23.5663 168.105 22.8558C167.688 22.7386 167.27 22.6845 166.855 22.6845C164.75 22.6845 162.705 24.0697 161.171 25.635C160.613 26.2048 159.98 26.7064 159.285 27.1251C157.214 28.3713 154.746 28.783 152.383 28.2761C150.02 27.7692 147.938 26.3822 146.562 24.3974C145.919 23.4691 145.449 22.4424 145.169 21.3683C144.884 20.2733 145.809 19.3241 146.941 19.3241H168.755C168.854 19.3232 168.951 19.318 169.047 19.3083ZM146.53 13.6424C147.068 12.855 147.726 12.1471 148.489 11.5458C150.386 10.0496 152.783 9.33204 155.191 9.5383C157.6 9.74455 159.839 10.8597 161.454 12.6557C161.735 12.9686 161.994 13.2981 162.228 13.6416L146.53 13.6424Z" fill="#006185"/>
</g>
</svg>