<svg width="40" height="40" viewBox="0 0 40 40" fill="none" xmlns="http://www.w3.org/2000/svg">
<path d="M1.83997 20.583H11.5066C14.0566 20.583 15.8066 22.5164 15.8066 24.883V30.2498C15.8066 32.6164 14.0566 34.5497 11.5066 34.5497H6.13999C3.77333 34.5497 1.83997 32.6164 1.83997 30.2498V20.583Z" fill="#212121"/>
<path d="M3.33337 20.5834C3.33337 10.5 5.21676 8.83346 10.8834 5.4668" stroke="#212121" stroke-width="3" stroke-linecap="square" stroke-linejoin="round"/>
<path d="M21.2201 20.583H30.8867C33.4367 20.583 35.1868 22.5164 35.1868 24.883V30.2498C35.1868 32.6164 33.4367 34.5497 30.8867 34.5497H25.5201C23.1535 34.5497 21.2201 32.6164 21.2201 30.2498V20.583Z" fill="#212121"/>
<path d="M22.7166 20.5834C22.7166 10.5 24.5999 8.83346 30.2666 5.4668" stroke="#212121" stroke-width="3" stroke-linecap="square" stroke-linejoin="round"/>
</svg>
