<svg
    width="15"
    height="16"
    viewBox="0 0 15 16"
    fill="none"
    xmlns="http://www.w3.org/2000/svg"
    >
    <path
    d="M13.1374 3.08091C13.1256 3.00012 13.0506 2.95529 12.9884 2.9504C12.9266 2.94552 11.7166 2.92821 11.7166 2.92821C11.7166 2.92821 10.7047 2.00313 10.6047 1.90903C10.5047 1.81492 10.3095 1.84333 10.2336 1.86464C10.2326 1.86508 10.0435 1.92012 9.72525 2.0129C9.67196 1.85043 9.59368 1.65068 9.48193 1.45004C9.12166 0.802844 8.594 0.460601 7.95646 0.459713C7.95552 0.459713 7.95505 0.459713 7.9541 0.459713C7.90978 0.459713 7.86592 0.463708 7.8216 0.46726C7.80274 0.445953 7.78387 0.42509 7.76407 0.404671C7.48633 0.125017 7.13031 -0.0112582 6.70355 0.000726967C5.88023 0.0229217 5.0602 0.582672 4.39532 1.57699C3.92754 2.27657 3.57152 3.15548 3.47061 3.83597C2.52515 4.11163 1.86404 4.30428 1.84942 4.30872C1.37221 4.44988 1.35712 4.46364 1.29488 4.88711C1.24866 5.20716 0 14.2963 0 14.2963L10.4642 16L14.9995 14.9386C14.9995 14.9386 13.1492 3.1617 13.1374 3.08091ZM9.20135 2.1656C8.96039 2.23573 8.68642 2.31563 8.38935 2.40219C8.38321 2.00979 8.3337 1.4638 8.13942 0.991942C8.76423 1.10336 9.07168 1.76876 9.20135 2.1656ZM7.84188 2.562C7.29346 2.7218 6.69507 2.89625 6.09478 3.07114C6.2636 2.46256 6.58378 1.85665 6.97705 1.45936C7.12323 1.31155 7.32789 1.14686 7.57026 1.05276C7.79802 1.5002 7.84753 2.13364 7.84188 2.562ZM6.72006 0.516532C6.91339 0.512537 7.07608 0.552487 7.21519 0.638603C6.99261 0.747357 6.77759 0.903607 6.57576 1.10735C6.05281 1.63559 5.652 2.45546 5.49214 3.24648C4.99371 3.39163 4.50613 3.53412 4.05722 3.66463C4.34062 2.41951 5.44923 0.551156 6.72006 0.516532Z"
    fill="#95BF47"
    />
    <path
    d="M12.9888 2.95085C12.9271 2.94597 11.7171 2.92866 11.7171 2.92866C11.7171 2.92866 10.7051 2.00358 10.6052 1.90948C10.5679 1.87441 10.5174 1.85621 10.4646 1.84866L10.4651 15.9996L15 14.9387C15 14.9387 13.1496 3.16215 13.1378 3.08136C13.1261 3.00057 13.0506 2.95574 12.9888 2.95085Z"
    fill="#5E8E3E"
    />
    <path
    d="M7.9508 5.14591L7.42408 7.00095C7.42408 7.00095 6.83652 6.74926 6.14004 6.79054C5.11867 6.85136 5.10782 7.45771 5.1182 7.60997C5.17384 8.43961 7.49245 8.62072 7.6226 10.5641C7.72492 12.0929 6.76108 13.1387 5.37236 13.2212C3.70543 13.3202 2.7878 12.3947 2.7878 12.3947L3.14099 10.9805C3.14099 10.9805 4.06475 11.6365 4.80414 11.5926C5.28701 11.5637 5.4596 11.194 5.44215 10.9325C5.36953 9.8503 3.48145 9.91422 3.36214 8.13598C3.2617 6.63962 4.30572 5.12328 6.60924 4.98656C7.49669 4.93285 7.9508 5.14591 7.9508 5.14591Z"
    fill="white"
    />
</svg>