<?xml version="1.0" encoding="utf-8"?>
<!-- Svg Vector Icons : http://www.onlinewebfonts.com/icon -->
<!DOCTYPE svg PUBLIC "-//W3C//DTD SVG 1.1//EN" "http://www.w3.org/Graphics/SVG/1.1/DTD/svg11.dtd">
<svg version="1.1" xmlns="http://www.w3.org/2000/svg" xmlns:xlink="http://www.w3.org/1999/xlink" x="0px" y="0px" viewBox="0 0 256 256" enable-background="new 0 0 256 256" xml:space="preserve">
<metadata> Svg Vector Icons : http://www.onlinewebfonts.com/icon </metadata>
<g><g><path fill="#006185" d="M128,10C62.8,10,10,62.8,10,128c0,65.2,52.8,118,118,118c65.2,0,118-52.8,118-118C246,62.8,193.2,10,128,10z M207.9,91.8l-93.6,93.4c-2.4,2.3-6.2,2.3-8.5,0l-1.9-1.9l0,0l-2-2l-8.8-8.8c0-0.1-0.1-0.1-0.1-0.2l-40.5-40.7c-2.4-2.3-2.4-6.1,0-8.5l12.8-12.7c2.4-2.3,6.2-2.3,8.5,0l36.4,36.6l76.5-76.3c2.3-2.3,6.2-2.3,8.5,0l12.8,12.7C210.2,85.7,210.2,89.5,207.9,91.8z"/></g></g>
</svg>