<svg width="300" height="68" viewBox="0 0 300 68" fill="none" xmlns="http://www.w3.org/2000/svg">
<path d="M-37.964 13.2706C-14.7325 -6.56656 22.9942 0.582704 55.8275 16.8787C63.5794 20.7262 68.9433 24.037 74.631 28.6051C79.3225 32.3731 84.2606 36.6711 87.3295 41.9616C88.9017 44.6721 90.0518 48.6623 86.658 50.4663C83.024 52.3979 78.6588 53.0644 74.6283 53.5287C69.8003 54.0848 64.8867 54.3245 60.0315 54.0466C56.76 53.8594 52.3832 53.7496 50.2237 50.7183C47.128 46.373 47.0201 39.0832 47.6315 34.039C47.9681 31.2611 48.9281 28.5855 50.7213 26.4118C53.5875 22.9375 57.2836 24.5275 60.2851 27.1874C63.7364 30.2459 64.7437 34.165 62.8164 38.4516C60.8322 42.865 55.3743 49.8645 49.8198 46.84C45.3944 44.4303 45.8986 38.8325 48.9867 35.6964C52.1535 32.4805 56.2172 30.9964 60.6109 30.3036C65.3988 29.5487 71.2996 29.4546 75.3225 32.6534C80.1063 36.4573 77.6493 41.4025 74.1207 44.9927C70.0483 49.1361 58.4855 58.1453 54.3267 49.9455C51.0619 43.5083 55.1192 33.5024 62.5622 32.4807C67.4896 31.8043 72.6699 32.0995 77.5391 33.0403C80.4911 33.6107 85.3767 34.4302 86.9761 37.4374C90.1091 43.3279 82.7148 49.7741 78.418 52.2729C74.0353 54.8218 68.9241 58.5121 63.1384 56.3514C59.8903 55.1384 58.42 53.4395 56.2846 50.708C50.9908 43.9364 50.9329 36.7649 54.1657 28.8007C58.5215 18.0699 85.1892 20.7321 85.1892 20.7321C85.1892 20.7321 163.369 24.2972 170.337 35.6964C179.048 49.9454 164.204 66.2393 209.445 66.8614C254.685 67.4836 280.639 24.1543 299.304 56.3514" stroke="black" stroke-linecap="round"/>
</svg>
