<svg width="297" height="92" viewBox="0 0 297 92" fill="none" xmlns="http://www.w3.org/2000/svg">
<path d="M1.4246 1.15502C10.4026 37.2247 21.772 92.9831 69.1211 74.8694C116.47 56.7558 151.184 44.2167 113.11 31.5542C81.5743 21.0659 20.5935 8.24285 22.0698 48.8804C23.546 89.5179 45.7683 90.4681 67.231 87.7853C98.7327 83.8475 104.685 72.8788 147.403 50.9281C198.594 24.6239 196.074 18.481 218.598 41.0049C241.122 63.5288 284.909 85.7376 242.067 85.7376C202.015 85.7376 122.302 72.3207 153.231 66.5214C203.634 57.0708 202.689 55.6532 197.019 44.2167C184.529 19.0254 153.031 11.078 127.198 61.7961C101.365 112.514 166.462 56.5983 226.315 68.4115C286.169 80.2248 273.254 90.7779 296.25 90.7779" stroke="black" stroke-linecap="round"/>
</svg>
