<svg width="291" height="106" viewBox="0 0 291 106" fill="none" xmlns="http://www.w3.org/2000/svg">
<path d="M253.247 0.541237C270.185 29.7607 293.174 53.9591 261.635 59.0408C230.097 64.1224 242.68 65.0343 207.189 62.2111C171.698 59.388 109.185 51.136 133.948 60.7347C158.711 70.3334 164.277 67.7522 195.816 63.7998C227.354 59.8474 221.708 57.0243 249.859 63.7998C278.01 70.5753 314.953 60.17 264.862 56.2176C214.771 52.2652 235.098 51.9908 190.089 56.2176C145.08 60.4444 167.489 57.5464 153.065 59.0408C139.416 60.4549 123.382 53.5558 114.59 69.1234C108.485 79.9321 136.514 91.6974 102.087 88.7242C84.3416 87.1916 89.5023 88.3209 49.979 79.9321C10.4558 71.5433 -2.6753 86.627 1.92239 105.098" stroke="black" stroke-linecap="round"/>
</svg>
